<?xml version="1.0" standalone="no"?>
<!DOCTYPE svg PUBLIC "-//W3C//DTD SVG 20010904//EN"
 "http://www.w3.org/TR/2001/REC-SVG-20010904/DTD/svg10.dtd">
<svg version="1.0" xmlns="http://www.w3.org/2000/svg"
 width="1587.000000pt" height="2245.000000pt" viewBox="0 0 1587.000000 2245.000000"
 preserveAspectRatio="xMidYMid meet">

<g transform="translate(0.000000,2245.000000) scale(0.100000,-0.100000)"
fill="#000000" stroke="none">
<path d="M8365 20930 c-11 -5 -35 -9 -53 -9 -18 -1 -55 -13 -82 -27 -53 -28
-73 -62 -47 -78 12 -7 13 -15 5 -32 -18 -39 -58 -42 -58 -5 0 17 -8 16 -90
-12 -71 -23 -90 -34 -90 -48 0 -23 -3 -23 -38 -5 -25 13 -33 10 -124 -41 -77
-43 -114 -72 -179 -141 -86 -90 -155 -188 -166 -232 -3 -14 -16 -45 -28 -70
-12 -25 -26 -72 -30 -105 -4 -33 -11 -68 -16 -78 -20 -37 -28 -209 -12 -282 8
-39 18 -90 22 -115 5 -25 14 -58 20 -75 16 -39 7 -71 -23 -79 -34 -8 -46 -56
-46 -181 1 -68 5 -108 15 -125 8 -14 14 -41 15 -60 0 -40 25 -113 52 -153 27
-39 55 -51 116 -52 l53 0 19 -55 c11 -30 19 -69 20 -86 0 -55 39 -187 80 -269
28 -59 42 -102 49 -160 15 -121 29 -199 41 -229 14 -39 13 -123 -3 -133 -39
-24 -147 -206 -147 -248 0 -8 -4 -16 -9 -19 -5 -3 -12 -26 -15 -50 -8 -54 -28
-73 -86 -79 -68 -6 -196 -43 -269 -78 -36 -17 -111 -52 -166 -79 -113 -55
-179 -68 -269 -51 -58 11 -183 0 -196 -17 -14 -19 -154 -72 -217 -82 -50 -8
-90 -22 -130 -46 -32 -20 -60 -38 -63 -40 -2 -3 -7 -42 -10 -87 -4 -72 -7 -82
-25 -85 -24 -5 -112 -95 -121 -126 -3 -11 -12 -28 -18 -36 -19 -24 -36 -93
-36 -148 0 -34 -8 -67 -26 -101 -20 -40 -27 -72 -31 -144 -4 -68 -11 -104 -28
-137 -26 -51 -55 -135 -55 -161 0 -9 -7 -30 -15 -45 -8 -16 -15 -41 -15 -55 0
-14 -11 -38 -25 -53 -14 -15 -25 -32 -25 -38 0 -6 -11 -26 -25 -44 -14 -18
-25 -35 -25 -38 0 -5 -86 -145 -136 -223 -19 -28 -34 -58 -34 -66 0 -8 -12
-45 -26 -83 -30 -78 -46 -197 -32 -233 l9 -24 27 26 c16 15 33 27 38 27 16 0
146 138 140 148 -3 5 -23 12 -45 15 -79 10 -125 54 -88 85 21 18 192 -5 248
-34 31 -16 64 -24 98 -24 39 0 61 -7 94 -27 23 -16 53 -30 67 -33 31 -7 37
-33 14 -68 -24 -35 -63 -167 -64 -213 0 -20 -3 -39 -7 -43 -5 -4 -14 -30 -20
-57 -44 -172 -42 -167 -82 -161 -27 4 -31 9 -40 54 -6 27 -12 72 -13 101 l-1
52 -6 -45 c-5 -36 -10 -46 -28 -48 -18 -3 -23 3 -28 31 -4 19 -1 60 6 91 7 31
9 59 5 63 -3 4 -28 -1 -54 -10 -26 -9 -69 -16 -97 -16 -27 1 -66 -2 -86 -6
-21 -4 -45 -2 -56 3 -15 8 -22 7 -31 -9 -17 -26 -23 -24 -64 16 -33 33 -37 35
-52 20 -9 -10 -24 -31 -33 -48 -8 -18 -41 -57 -73 -88 -66 -65 -75 -91 -60
-166 11 -53 11 -57 -19 -113 -32 -60 -39 -108 -20 -127 17 -17 2 -103 -18
-103 -12 0 -14 -7 -8 -37 4 -21 7 -79 8 -129 1 -50 7 -97 13 -105 6 -8 14 -30
18 -51 7 -36 49 -79 97 -96 23 -9 49 -68 49 -113 0 -45 30 -129 87 -246 72
-148 107 -183 210 -209 55 -15 107 -18 271 -17 130 1 220 5 248 13 55 16 74 4
57 -32 -25 -50 -37 -157 -25 -204 7 -24 12 -51 12 -59 0 -19 65 -129 102 -171
27 -31 30 -39 22 -67 -8 -25 -17 -34 -48 -42 -51 -15 -57 -33 -54 -170 l3
-111 -87 -88 c-49 -49 -88 -92 -88 -97 0 -5 -13 -23 -30 -42 -16 -18 -48 -67
-71 -108 -23 -41 -55 -92 -71 -114 -43 -59 -107 -162 -141 -225 -16 -30 -49
-87 -74 -127 -24 -39 -49 -89 -54 -110 -6 -21 -19 -56 -29 -78 -10 -22 -25
-56 -33 -75 -8 -19 -27 -61 -41 -92 -32 -69 -40 -108 -27 -128 9 -12 19 -12
84 4 76 19 145 18 277 -3 30 -4 60 -6 67 -4 20 8 63 93 84 168 37 127 40 135
49 135 6 0 10 12 10 26 0 14 12 60 26 102 46 139 54 167 54 183 0 9 9 24 20
34 20 18 20 17 20 -44 0 -34 -4 -69 -9 -79 -5 -9 -17 -43 -27 -74 -10 -32 -21
-58 -25 -58 -3 0 -18 -23 -33 -51 -25 -49 -26 -56 -20 -153 7 -104 5 -115 -47
-231 -25 -56 -39 -112 -39 -154 0 -26 -6 -53 -12 -60 -10 -9 -13 -69 -13 -229
0 -176 -3 -221 -15 -240 -8 -13 -50 -52 -92 -88 -44 -37 -78 -74 -78 -84 0
-10 11 -25 25 -34 24 -16 24 -18 11 -45 -8 -15 -16 -41 -18 -57 -3 -28 -2 -29
52 -34 52 -5 55 -7 58 -34 2 -16 -1 -33 -7 -39 -6 -6 -11 -22 -11 -35 0 -43
-47 -130 -80 -147 -16 -8 -30 -20 -30 -26 0 -19 33 -74 61 -103 l28 -28 30 22
c34 24 37 36 16 64 -19 26 -18 42 5 91 11 22 19 48 20 57 0 9 4 19 9 22 4 3
11 27 14 54 10 87 36 118 76 93 11 -7 10 -47 -4 -252 -27 -368 -35 -593 -44
-1174 -5 -377 -11 -543 -20 -575 -15 -51 -9 -747 8 -1120 6 -113 10 -455 10
-760 0 -311 5 -586 10 -625 11 -75 27 -230 41 -385 4 -52 15 -167 24 -255 9
-88 21 -214 26 -280 6 -66 13 -127 16 -135 3 -8 10 -71 15 -140 5 -69 16 -170
24 -225 9 -55 20 -129 24 -165 5 -36 14 -92 20 -125 25 -125 30 -164 42 -305
25 -309 29 -348 39 -450 6 -58 16 -109 21 -115 5 -5 9 -30 9 -56 0 -25 4 -59
9 -75 5 -16 17 -65 26 -109 9 -44 23 -100 30 -125 8 -25 21 -72 30 -105 9 -33
20 -68 26 -77 5 -10 9 -30 9 -46 0 -15 4 -32 9 -37 4 -6 16 -44 25 -85 34
-152 74 -286 99 -330 16 -29 20 -52 19 -129 -1 -51 -4 -101 -7 -110 -3 -10
-21 -25 -41 -34 -37 -18 -41 -40 -8 -45 10 -2 30 -14 44 -27 62 -56 441 -48
464 10 8 22 36 18 36 -4 0 -26 24 -43 57 -39 24 3 28 7 26 32 -5 64 60 103
176 107 123 4 204 -21 222 -69 11 -28 3 -102 -11 -102 -11 0 -37 26 -43 42 -8
22 -42 -6 -45 -36 -2 -15 -12 -32 -23 -39 -26 -16 -24 -33 6 -53 14 -9 25 -24
25 -32 0 -9 7 -36 17 -60 15 -40 15 -46 0 -78 -14 -29 -22 -34 -51 -34 -19 0
-38 -5 -41 -10 -4 -6 -11 -8 -16 -4 -6 3 -56 12 -112 20 -111 14 -120 12 -134
-44 -5 -21 -9 -22 -55 -16 -40 6 -54 3 -76 -13 -15 -11 -49 -22 -77 -25 -27
-4 -51 -11 -53 -17 -2 -6 -21 -11 -42 -11 -21 0 -51 -5 -67 -11 -26 -10 -27
-11 -10 -24 16 -12 14 -14 -25 -20 -23 -4 -78 -9 -121 -10 -43 -1 -84 -8 -90
-14 -6 -6 -31 -11 -56 -11 -67 0 -94 -9 -80 -26 9 -11 5 -14 -22 -14 -19 0
-40 -4 -48 -9 -8 -5 -31 -3 -58 6 -36 12 -55 13 -101 5 -31 -6 -82 -14 -112
-17 -30 -3 -74 -13 -98 -21 -23 -8 -63 -14 -87 -14 -31 0 -45 -4 -45 -13 0
-24 -62 -50 -106 -44 -75 9 -174 40 -174 54 0 18 -10 16 -25 -3 -9 -14 -16
-14 -33 -5 -12 6 -22 18 -22 25 0 7 -13 27 -30 44 -16 18 -30 38 -30 46 0 47
-66 37 -72 -11 -4 -37 -58 -68 -85 -48 -29 23 -33 18 -33 -39 l0 -54 73 -22
c68 -21 84 -22 285 -17 118 3 219 10 225 15 7 5 41 10 77 10 36 1 96 8 135 17
43 10 103 15 160 14 49 -2 142 5 205 15 307 46 813 90 1210 106 230 10 346 21
359 37 18 20 70 162 74 201 6 51 -15 229 -30 257 -6 11 -18 40 -26 65 -9 25
-25 70 -36 100 -12 30 -21 64 -21 75 0 12 -4 25 -9 30 -21 23 -52 203 -39 227
5 10 26 27 47 38 39 19 51 36 51 70 0 10 6 20 14 23 12 5 16 41 20 169 8 221
8 274 1 334 -4 31 -2 67 5 90 43 139 64 581 30 643 -6 12 -10 91 -10 190 l0
171 -40 89 -41 90 17 67 c15 59 16 78 5 143 -7 42 -17 110 -21 151 -5 41 -14
93 -19 115 -6 22 -11 63 -11 90 0 55 -26 210 -37 228 -4 7 -10 53 -14 102 -3
50 -14 117 -24 150 -9 33 -21 76 -25 95 -5 19 -16 60 -25 90 -10 30 -22 87
-27 125 -5 39 -18 104 -29 145 -37 147 -49 226 -49 337 0 61 4 114 9 117 28
18 127 273 146 378 7 35 -15 135 -35 163 -13 18 -18 107 -8 139 6 17 14 54 18
81 5 28 13 70 19 95 6 25 10 107 11 183 0 120 3 148 26 220 45 141 104 252
181 339 17 20 42 56 54 79 12 24 28 49 35 57 10 9 14 40 14 102 0 89 5 105 28
91 12 -7 57 -148 69 -215 3 -15 27 -69 53 -120 26 -50 55 -113 64 -141 9 -27
41 -99 71 -159 30 -59 55 -115 55 -122 0 -8 4 -22 9 -32 5 -9 16 -44 26 -77 9
-33 21 -68 27 -79 5 -10 13 -48 18 -85 14 -103 25 -152 49 -204 12 -29 21 -69
21 -99 0 -27 6 -64 14 -81 18 -42 46 -135 46 -154 0 -8 17 -52 38 -96 47 -99
58 -130 67 -182 8 -47 30 -171 42 -235 5 -25 13 -52 18 -60 5 -8 12 -34 17
-57 11 -60 23 -117 42 -198 26 -111 35 -178 51 -370 7 -99 19 -202 25 -230 6
-29 11 -174 11 -340 1 -322 13 -522 34 -575 10 -26 16 -149 25 -500 9 -364 15
-479 27 -530 12 -47 17 -127 20 -290 5 -311 5 -438 2 -560 -2 -59 2 -122 8
-144 13 -44 51 -88 97 -111 31 -16 51 -26 84 -45 9 -6 24 -13 32 -17 8 -4 33
-18 55 -32 58 -37 204 -101 230 -101 30 0 60 -34 50 -57 -7 -17 -17 -97 -31
-248 l-6 -60 24 35 c13 19 37 48 52 63 27 27 27 28 10 56 -14 24 -15 35 -6 58
6 15 14 43 17 60 4 18 11 35 16 39 6 3 72 12 147 20 136 13 138 13 247 -12 61
-14 133 -37 162 -51 56 -28 73 -25 73 13 0 29 22 40 53 27 17 -8 30 -5 60 14
21 13 42 21 46 18 11 -6 21 29 21 71 0 28 5 33 43 48 23 9 50 16 58 16 8 0 24
7 35 15 10 8 26 15 35 15 26 0 39 40 43 140 3 52 5 95 6 95 1 0 3 14 5 30 19
169 22 221 16 295 -11 113 -4 472 10 535 18 83 -8 919 -31 995 -16 56 -13 303
6 359 14 43 14 76 4 282 -23 472 -27 513 -49 604 -21 86 -22 109 -21 555 0
387 -2 474 -15 515 -8 28 -15 62 -15 78 0 15 -4 35 -10 45 -21 37 -90 221 -90
240 0 12 -4 23 -9 26 -4 3 -11 29 -14 57 -4 28 -10 56 -15 63 -6 6 -13 25 -17
43 -3 18 -18 56 -33 85 -25 51 -26 58 -23 205 1 84 -2 186 -8 225 -6 40 -12
101 -15 135 -3 35 -8 69 -13 75 -7 13 -14 53 -32 188 -5 36 -15 79 -22 96 -10
26 -9 57 4 175 19 164 23 665 6 784 -6 39 -14 151 -19 250 -8 172 -27 315 -42
331 -5 4 -8 23 -8 43 -1 20 -7 54 -15 76 -8 22 -15 57 -15 77 0 20 -4 40 -10
43 -5 3 -10 1 -10 -4 0 -6 -5 -11 -11 -11 -7 0 -8 11 -3 32 4 18 6 66 5 107
-2 47 3 88 12 110 34 85 37 109 31 221 -6 109 -6 111 14 99 32 -20 55 -4 49
34 -11 75 -29 153 -38 161 -5 6 -9 19 -9 30 0 11 -6 27 -14 35 -22 24 -36 130
-36 270 l0 124 -45 84 -46 85 7 107 c4 71 2 116 -6 136 -6 16 -14 68 -17 115
-2 47 -11 99 -19 117 -8 17 -14 36 -14 42 0 6 -4 19 -9 29 -9 19 -38 82 -69
152 -11 25 -25 68 -32 95 -7 28 -18 64 -25 80 -7 17 -25 77 -40 135 -15 58
-34 115 -41 127 -8 12 -14 29 -14 36 0 8 -11 22 -25 31 -28 19 -32 48 -10 86
11 18 14 63 15 170 0 80 4 161 10 179 5 19 10 58 11 86 2 44 -2 55 -25 78 -29
29 -30 53 -4 120 6 15 8 47 5 72 -6 39 -3 47 23 75 16 17 52 74 81 128 29 53
65 122 82 152 16 30 43 74 59 98 34 49 34 55 12 142 -9 36 -18 84 -21 108 -3
23 -9 42 -14 42 -5 0 -9 8 -9 18 -1 9 -9 35 -20 57 -23 47 -25 78 -7 97 17 19
103 196 116 241 24 81 29 104 36 141 3 22 22 73 41 113 19 41 34 81 34 88 0 7
6 26 14 42 22 45 32 72 57 163 12 47 26 92 30 100 11 25 29 108 29 138 0 15
17 59 37 97 38 71 72 158 73 185 0 13 57 91 156 216 20 24 61 92 70 114 3 8
16 38 29 65 56 125 55 120 55 268 l0 142 40 79 c22 43 40 89 40 102 0 12 5 26
10 29 16 10 12 109 -6 145 -12 23 -17 65 -19 155 -1 67 -6 128 -10 136 -5 7
-8 30 -6 50 1 20 -5 53 -13 74 -9 21 -16 45 -16 54 0 9 -9 22 -19 28 -17 10
-20 9 -25 -13 -4 -14 -2 -31 3 -38 15 -18 16 -68 3 -93 -7 -12 -12 -45 -12
-73 0 -37 -4 -50 -12 -47 -7 2 -12 15 -11 28 1 13 4 80 7 149 2 69 9 144 15
168 6 24 8 48 5 54 -4 6 -6 39 -6 74 1 35 -5 79 -13 98 -8 20 -15 46 -15 58 0
13 -7 36 -15 52 -8 15 -15 36 -15 45 0 33 -24 71 -42 65 -9 -2 -19 0 -23 6 -3
5 -1 10 4 10 17 0 13 35 -6 69 -19 33 -45 49 -51 32 -2 -6 -8 -11 -14 -11 -6
0 -5 6 2 16 11 13 10 18 -7 35 l-20 21 -7 -26 c-8 -34 -24 -33 -28 2 -2 19 -9
28 -26 30 -12 2 -20 8 -16 13 3 5 10 7 15 4 16 -11 10 10 -9 26 -22 19 -104
59 -120 59 -7 0 -12 9 -12 20 0 14 -9 21 -37 25 -21 4 -49 15 -64 25 -23 16
-60 18 -420 21 -318 2 -399 6 -419 17 -34 19 -90 80 -90 97 0 8 -6 18 -13 22
-14 8 -97 172 -97 190 0 6 -7 16 -15 23 -8 7 -15 20 -15 29 0 22 -41 61 -63
61 -10 0 -21 -10 -26 -22 -5 -13 -18 -32 -30 -42 -14 -13 -19 -26 -15 -43 5
-17 3 -22 -8 -18 -8 3 -27 -8 -44 -25 -16 -18 -81 -84 -144 -148 -162 -165
-182 -189 -174 -214 5 -18 3 -20 -17 -15 -13 3 -28 3 -33 -2 -21 -15 -122 -51
-186 -65 -71 -17 -278 -25 -297 -13 -22 14 -14 75 18 145 24 53 29 75 24 108
-9 65 -8 175 3 186 7 7 26 4 57 -7 l46 -18 29 28 c24 23 34 26 62 21 40 -8 39
-8 113 2 52 7 110 29 165 63 8 5 32 18 52 29 84 46 198 143 198 170 0 14 -22
24 -60 26 -19 1 -55 7 -80 14 -25 6 -86 12 -135 13 -72 2 -96 -2 -118 -16 -19
-12 -37 -16 -60 -12 -24 5 -37 2 -46 -9 -11 -13 -17 -14 -28 -5 -11 9 -16 8
-26 -5 -12 -16 -14 -16 -39 3 -28 23 -68 27 -85 10 -16 -16 -98 15 -146 56
-22 19 -45 35 -51 35 -16 1 -47 30 -85 80 -19 25 -50 62 -70 83 l-36 38 -1
102 c-2 108 -15 205 -30 216 -5 3 -22 32 -39 64 -16 32 -37 65 -45 72 -8 8
-25 23 -37 35 -17 14 -23 31 -23 61 0 22 -5 49 -11 61 -19 35 -3 61 53 87 29
13 72 26 95 29 47 5 48 6 29 42 -23 41 -6 58 53 52 58 -5 111 12 112 37 0 11
3 10 9 -6 6 -15 21 -23 50 -28 39 -7 42 -9 36 -34 -4 -14 -13 -66 -22 -116
-16 -94 -51 -212 -65 -221 -15 -9 -10 -88 6 -111 8 -12 12 -28 9 -37 -5 -12 0
-16 19 -16 19 0 26 6 29 22 2 15 22 31 66 54 35 17 82 46 104 64 38 31 42 32
104 25 53 -5 64 -4 64 8 0 23 -51 59 -75 53 -11 -2 -42 -11 -70 -18 -44 -13
-53 -12 -77 1 -15 9 -36 32 -47 51 -20 35 -20 49 0 140 5 25 13 83 18 130 8
77 6 89 -13 124 -14 25 -33 43 -58 53 -21 8 -38 18 -38 23 0 17 -82 40 -173
49 -54 6 -104 15 -111 20 -17 14 -9 107 12 139 10 15 13 37 9 67 -4 38 -1 47
14 56 11 5 19 17 19 26 0 31 43 84 96 118 29 19 93 55 141 80 48 25 90 50 93
54 17 26 56 33 151 26 84 -6 99 -5 99 8 0 8 -11 18 -25 21 -14 4 -29 14 -32
23 -11 27 -55 60 -98 74 -91 28 -130 51 -157 90 -42 59 -38 69 26 69 50 0 57
3 81 33 23 29 27 30 36 15 6 -11 22 -18 39 -18 16 0 32 -4 35 -10 3 -5 34 -9
68 -8 34 1 68 -2 76 -6 28 -18 -24 -30 -116 -28 -75 2 -93 0 -93 -12 0 -10 18
-16 63 -21 34 -4 69 -13 77 -21 9 -7 27 -17 40 -22 27 -11 23 -14 -35 -27
l-30 -7 30 -11 c17 -5 37 -15 45 -22 8 -6 23 -15 33 -18 22 -8 38 -48 25 -64
-5 -6 -19 -14 -31 -16 -13 -3 -8 -5 14 -6 20 0 42 -8 49 -16 9 -11 30 -15 74
-14 54 1 72 -4 154 -45 99 -49 127 -73 136 -121 4 -16 18 -42 33 -57 17 -18
26 -39 26 -59 0 -28 3 -30 26 -26 18 4 36 -2 58 -19 17 -13 35 -24 40 -24 19
0 51 -68 56 -118 2 -30 1 -49 -2 -44 -3 6 -18 13 -33 17 -15 4 -34 15 -44 26
-9 10 -21 16 -25 13 -20 -12 -8 -63 25 -105 44 -57 56 -103 58 -230 2 -116 19
-210 32 -171 4 12 15 22 24 22 25 0 52 36 52 69 0 30 27 61 53 61 27 0 47 30
47 70 0 21 -4 41 -9 45 -6 3 -10 103 -10 235 0 242 -3 261 -51 315 -10 11 -26
43 -35 72 -12 37 -35 70 -83 121 -37 39 -77 75 -89 82 -13 6 -23 19 -23 28 0
20 -24 53 -89 124 -48 53 -60 58 -68 28 -3 -11 -9 -20 -14 -20 -13 0 -11 34 4
49 10 10 8 15 -7 27 -11 8 -30 14 -42 14 -12 0 -27 7 -35 16 -8 10 -25 14 -48
12 -31 -2 -38 1 -56 29 -26 41 -43 47 -88 28 -54 -22 -74 -19 -92 15 -12 24
-22 30 -48 30 -18 0 -37 4 -42 9 -6 5 -19 5 -30 1z m-60 -100 c3 -5 14 -10 23
-10 27 0 102 -32 96 -41 -9 -15 -64 -10 -70 6 -4 8 -11 15 -18 15 -6 0 -24 9
-41 20 -20 14 -25 20 -13 20 9 0 20 -4 23 -10z m240 -150 c4 -6 -5 -10 -19
-10 -14 0 -26 5 -26 10 0 6 9 10 19 10 11 0 23 -4 26 -10z m31 -35 c-20 -15
-20 -21 0 -29 9 -4 23 -1 32 6 13 11 14 9 7 -12 -12 -42 -22 -45 -60 -16 l-36
28 23 23 c12 12 28 20 36 17 13 -4 12 -7 -2 -17z m366 -20 c0 -5 -5 -11 -11
-13 -6 -2 -11 4 -11 13 0 9 5 15 11 13 6 -2 11 -8 11 -13z m-312 -75 c0 -5 -4
-10 -10 -10 -5 0 -10 5 -10 10 0 6 5 10 10 10 6 0 10 -4 10 -10z m-408 -81
c-9 -4 -25 -16 -34 -28 -10 -11 -30 -23 -45 -26 -15 -3 -45 -9 -65 -14 -32 -7
-38 -6 -37 8 0 27 54 61 106 67 26 4 55 10 63 15 9 4 18 3 22 -4 4 -7 0 -15
-10 -18z m1043 -613 c6 -18 6 -33 -1 -43 -17 -27 -31 -26 -35 4 -10 69 15 96
36 39z m820 -1976 c4 -6 -7 -10 -27 -9 -27 0 -30 2 -13 9 27 12 33 12 40 0z
m-218 -6 c-3 -3 -12 -4 -19 -1 -8 3 -5 6 6 6 11 1 17 -2 13 -5z m333 -3 c0 -5
-7 -14 -15 -21 -8 -7 -15 -10 -15 -7 0 3 -3 12 -6 21 -4 12 0 16 15 16 12 0
21 -4 21 -9z m-758 -33 c-12 -12 -35 -1 -27 12 3 5 13 6 21 3 10 -4 12 -9 6
-15z m43 12 c3 -5 -1 -10 -10 -10 -9 0 -13 5 -10 10 3 6 8 10 10 10 2 0 7 -4
10 -10z m535 0 c0 -5 -12 -10 -27 -10 -22 0 -25 2 -13 10 20 13 40 13 40 0z
m-90 -35 c-12 -15 -30 -12 -30 6 0 5 10 9 21 9 18 0 19 -2 9 -15z m-55 -25
c-3 -5 -15 -10 -26 -10 -11 0 -17 5 -14 10 3 6 15 10 26 10 11 0 17 -4 14 -10z
m-625 -25 c0 -8 -4 -15 -9 -15 -13 0 -22 16 -14 24 11 11 23 6 23 -9z m865 5
c-3 -5 -10 -10 -16 -10 -5 0 -9 5 -9 10 0 6 7 10 16 10 8 0 12 -4 9 -10z m145
-27 c0 -25 -1 -26 -16 -11 -9 9 -13 21 -10 27 13 20 26 11 26 -16z m-490 -15
c0 -14 -30 -48 -42 -48 -14 0 -9 28 8 44 18 19 34 21 34 4z m420 -6 c0 -13
-12 -22 -22 -16 -10 6 -1 24 13 24 5 0 9 -4 9 -8z m-167 -9 c-7 -2 -19 -2 -25
0 -7 3 -2 5 12 5 14 0 19 -2 13 -5z m-48 -23 c-3 -5 -11 -10 -16 -10 -6 0 -7
5 -4 10 3 6 11 10 16 10 6 0 7 -4 4 -10z m-1350 -20 c3 -5 1 -10 -4 -10 -6 0
-11 5 -11 10 0 6 2 10 4 10 3 0 8 -4 11 -10z m1605 0 c0 -5 -8 -10 -17 -10
-15 0 -16 2 -3 10 19 12 20 12 20 0z m-305 -10 c-3 -5 -13 -10 -21 -10 -8 0
-12 5 -9 10 3 6 13 10 21 10 8 0 12 -4 9 -10z m-770 -20 c3 -6 -1 -13 -10 -16
-19 -8 -30 0 -20 15 8 14 22 14 30 1z m725 1 c0 -5 -8 -12 -17 -15 -24 -9 -62
-31 -76 -45 -14 -14 -37 -14 -37 -1 0 5 26 23 58 39 63 32 72 35 72 22z m310
-44 c0 -10 6 -28 14 -40 8 -12 18 -40 22 -61 l7 -39 -29 26 c-34 32 -35 32
-62 9 -25 -22 -38 -67 -23 -76 20 -13 11 -26 -17 -26 -35 0 -45 9 -30 27 16
19 4 27 -20 12 -18 -11 -26 -9 -61 15 -22 16 -47 26 -56 22 -18 -6 -45 2 -45
15 0 5 15 9 33 9 17 0 45 9 62 20 20 13 33 16 41 9 7 -6 23 -9 36 -7 24 3 25
10 12 76 -5 25 -3 32 9 32 9 0 17 -13 21 -35 9 -45 42 -50 52 -7 13 61 16 65
25 51 5 -8 9 -22 9 -32z m-1590 13 c0 -5 -4 -10 -10 -10 -5 0 -10 5 -10 10 0
6 5 10 10 10 6 0 10 -4 10 -10z m1887 -12 c-3 -8 -6 -5 -6 6 -1 11 2 17 5 13
3 -3 4 -12 1 -19z m-1373 -24 c-4 -15 -7 -36 -8 -48 -1 -14 -8 -21 -21 -21
-27 0 -29 24 -5 63 24 39 43 42 34 6z m366 16 c0 -5 -5 -10 -11 -10 -5 0 -7 5
-4 10 3 6 8 10 11 10 2 0 4 -4 4 -10z m535 -30 c3 -5 -1 -10 -9 -10 -9 0 -16
5 -16 10 0 6 4 10 9 10 6 0 13 -4 16 -10z m279 -31 c-11 -18 -24 -8 -24 19 1
26 1 26 15 8 8 -10 12 -23 9 -27z m-570 16 c-4 -8 -15 -15 -25 -15 -12 0 -16
5 -13 15 4 8 15 15 25 15 12 0 16 -5 13 -15z m-54 -30 c0 -8 -7 -15 -15 -15
-9 0 -12 6 -9 15 4 8 10 15 15 15 5 0 9 -7 9 -15z m-42 -45 c-14 -22 -24 -25
-33 -10 -9 15 4 30 26 30 17 0 18 -3 7 -20z m125 -17 c-7 -2 -21 -2 -30 0 -10
3 -4 5 12 5 17 0 24 -2 18 -5z m508 -56 c-15 -15 -31 2 -31 31 l1 27 20 -24
c12 -15 16 -28 10 -34z m-691 19 c0 -8 -7 -16 -15 -20 -10 -4 -15 1 -15 14 0
11 7 20 15 20 8 0 15 -6 15 -14z m-820 -36 c0 -5 -5 -10 -11 -10 -5 0 -7 5 -4
10 3 6 8 10 11 10 2 0 4 -4 4 -10z m775 0 c-3 -5 -14 -10 -23 -9 -14 0 -13 2
3 9 27 11 27 11 20 0z m665 1 c0 -15 -19 -23 -38 -16 -14 5 -14 7 -2 15 19 12
40 13 40 1z m-1804 -58 c-11 -11 -19 6 -11 24 8 17 8 17 12 0 3 -10 2 -21 -1
-24z m1104 33 c0 -3 -4 -8 -10 -11 -5 -3 -10 -1 -10 4 0 6 5 11 10 11 6 0 10
-2 10 -4z m833 -8 c28 -14 35 -32 15 -44 -6 -4 -18 1 -27 12 -9 11 -27 24 -41
31 l-25 12 26 0 c14 1 37 -5 52 -11z m-168 -18 c3 -5 1 -10 -4 -10 -6 0 -11 5
-11 10 0 6 2 10 4 10 3 0 8 -4 11 -10z m-705 -4 c0 -9 -30 -14 -35 -6 -4 6 3
10 14 10 12 0 21 -2 21 -4z m765 -37 c-5 -7 -11 -6 -21 2 -11 9 -12 15 -2 26
10 12 13 12 20 -1 5 -9 6 -21 3 -27z m-812 -6 c-3 -10 -18 -34 -32 -53 -54
-70 -71 -130 -72 -246 -1 -62 3 -109 9 -113 14 -9 27 -81 14 -81 -5 0 -12 7
-16 15 -7 20 -26 19 -26 0 0 -24 42 -38 81 -28 45 11 89 5 89 -12 0 -8 12 -20
27 -27 15 -7 33 -23 39 -36 18 -36 56 -72 75 -72 10 0 21 -4 24 -10 3 -5 21
-10 38 -10 49 0 59 -11 44 -43 -9 -22 -17 -26 -35 -22 -17 4 -24 0 -32 -19
-12 -31 -23 -38 -72 -40 -31 -2 -43 -8 -56 -29 -10 -16 -25 -27 -39 -27 -12 0
-25 -4 -28 -10 -19 -31 -66 6 -81 64 -3 15 -11 25 -18 23 -13 -4 -21 -57 -8
-57 5 0 21 -11 36 -25 34 -32 29 -59 -10 -49 -19 5 -43 -2 -90 -27 -55 -28
-68 -31 -84 -21 -16 10 -21 9 -30 -7 -11 -22 -1 -34 19 -22 8 5 22 -1 37 -16
22 -22 25 -23 52 -9 22 11 47 14 99 9 70 -6 70 -6 77 21 9 37 32 27 28 -12 -2
-16 2 -33 7 -37 7 -3 12 4 13 17 1 13 2 32 3 43 1 11 3 28 4 38 1 19 45 25 56
7 4 -6 12 -4 21 5 18 18 51 20 56 4 7 -21 51 10 45 31 -8 31 54 82 105 87 24
2 45 8 46 13 4 12 59 13 66 1 3 -4 -6 -13 -19 -19 -14 -7 -25 -19 -25 -28 0
-13 7 -15 35 -10 38 7 45 0 18 -19 -15 -11 -15 -13 5 -19 12 -4 26 -16 32 -26
8 -14 5 -19 -13 -24 -41 -11 -77 -7 -77 9 0 8 7 15 15 15 8 0 15 5 15 10 0 6
-7 10 -15 10 -8 0 -15 7 -15 15 0 18 -65 21 -75 4 -4 -5 -18 -14 -32 -20 -13
-5 -21 -13 -18 -19 9 -15 31 -12 50 6 11 11 24 14 43 9 l27 -8 -29 -12 -30
-13 22 -13 c26 -17 29 -49 4 -49 -9 0 -23 9 -30 20 -17 27 -49 26 -57 -2 -7
-22 -52 -67 -67 -68 -5 0 -8 6 -8 14 0 8 -14 30 -32 50 l-32 36 -27 -33 c-16
-17 -28 -40 -29 -49 0 -9 -9 -20 -20 -23 -11 -3 -20 -14 -20 -23 -1 -15 -3
-14 -15 2 -12 16 -18 17 -27 8 -17 -17 -63 -15 -78 3 -15 18 -32 19 -48 3 -7
-7 -29 -14 -50 -15 -20 -1 -46 -3 -57 -3 -11 -1 -48 2 -82 5 -56 6 -63 9 -64
28 0 12 -3 16 -6 10 -6 -18 -84 -17 -108 1 -16 12 -22 12 -42 -1 -14 -10 -55
-17 -110 -19 -77 -3 -90 -7 -107 -26 -16 -20 -41 -25 -55 -12 -2 2 4 13 14 24
10 11 15 28 12 39 -5 22 10 31 50 31 16 0 27 7 30 19 4 14 15 21 42 23 28 2
36 7 37 23 2 37 5 40 18 22 11 -14 22 -16 56 -11 51 8 62 30 29 56 -13 10 -34
28 -47 39 -14 14 -30 19 -45 16 -33 -7 -88 -27 -120 -43 -32 -16 -77 -19 -77
-5 0 16 88 61 120 61 18 0 33 6 36 15 4 8 14 15 24 15 10 0 32 11 48 25 17 14
34 25 40 25 12 0 43 17 99 53 24 15 46 27 50 27 5 1 27 18 51 40 36 32 42 43
36 64 -8 31 -39 35 -54 6 -6 -11 -17 -20 -25 -20 -8 0 -18 -6 -22 -13 -12 -20
-121 -67 -152 -66 -22 1 -23 2 -6 7 34 12 104 61 115 82 13 23 -4 64 -23 57
-7 -2 -29 5 -49 16 -42 21 -50 51 -17 60 27 7 19 32 -10 31 -11 0 -21 5 -21
12 0 24 32 23 76 -2 30 -18 44 -22 44 -12 -1 20 -36 58 -57 59 -16 1 -16 2 0
6 9 2 17 8 17 13 0 4 8 10 18 12 13 4 23 -5 36 -32 10 -21 29 -43 42 -49 33
-15 33 -45 -1 -37 -18 5 -25 2 -25 -9 0 -8 5 -15 12 -15 6 0 19 -7 29 -16 22
-20 35 -13 44 23 11 46 25 56 46 37 18 -16 19 -16 19 9 0 32 8 37 39 26 20 -8
23 -14 18 -43 -6 -40 4 -59 29 -54 15 3 19 12 19 46 0 23 -3 42 -7 42 -5 0 -8
14 -8 30 0 17 5 30 10 30 11 0 13 62 4 98 -4 12 -13 22 -20 22 -17 0 -17 -1
-4 -34 7 -21 6 -26 -5 -26 -8 0 -15 5 -15 11 0 6 -10 9 -22 7 -17 -2 -22 -9
-20 -25 3 -18 0 -22 -15 -16 -10 3 -28 15 -39 25 -23 20 -39 12 -28 -15 3 -9
-3 -16 -17 -20 -22 -6 -22 -7 -4 -27 18 -20 18 -20 -29 -20 -43 0 -47 2 -41
20 4 11 2 20 -4 20 -6 0 -11 7 -11 15 0 8 9 15 20 15 11 0 20 7 20 15 0 8 15
21 33 30 17 8 44 24 60 37 19 16 30 19 38 11 6 -6 19 -8 30 -6 15 4 17 8 8 19
-9 11 -7 14 8 14 24 0 43 19 43 43 0 16 6 18 30 15 21 -3 30 0 30 9 0 7 10 17
23 22 13 5 29 16 36 25 18 21 32 20 24 -1z m892 -3 c8 -13 -20 -24 -41 -16
-20 8 -9 26 16 26 10 0 22 -5 25 -10z m197 -28 c16 -27 16 -30 1 -53 -10 -13
-24 -29 -31 -35 -10 -7 -13 -22 -10 -43 5 -32 4 -33 -24 -27 -23 5 -28 2 -28
-14 0 -11 13 -34 29 -52 29 -32 30 -32 44 -14 10 13 16 15 21 7 4 -6 0 -14 -8
-17 -9 -3 -16 -12 -16 -19 0 -7 -7 -15 -15 -19 -8 -3 -15 -12 -15 -20 0 -8
-11 -27 -24 -43 -13 -15 -29 -46 -36 -68 -7 -22 -22 -53 -34 -70 -13 -16 -38
-58 -56 -92 -19 -34 -44 -67 -56 -73 -12 -7 -28 -23 -35 -37 -7 -14 -30 -33
-50 -43 -20 -11 -39 -26 -42 -35 -4 -8 -13 -15 -22 -15 -8 0 -15 -7 -15 -15 0
-12 -8 -14 -42 -9 -24 4 -54 11 -67 16 -19 7 -21 11 -11 23 7 8 18 15 25 15 7
0 18 7 25 15 7 8 27 15 46 15 39 0 52 14 27 30 -14 9 -9 10 27 6 39 -5 43 -4
28 8 -26 20 -22 26 17 26 19 0 35 4 35 10 0 5 18 21 40 35 23 14 44 34 47 43
4 9 13 23 20 30 7 7 13 20 13 28 0 8 4 14 9 14 5 0 17 24 26 54 13 42 16 77
12 154 l-5 100 29 26 c16 14 29 35 29 46 0 10 6 23 13 27 8 4 16 16 20 26 3 9
13 17 22 17 19 0 19 10 -1 24 -17 13 -10 46 10 46 6 0 19 -13 28 -28z m-549
-55 c151 -86 215 -222 148 -315 -38 -55 -146 -64 -219 -20 l-33 21 -40 -42
c-22 -22 -44 -41 -48 -41 -9 0 -67 25 -91 39 -8 5 -32 17 -52 26 -53 22 -51
53 6 116 43 47 147 215 160 257 13 41 31 36 169 -41z m442 53 c3 -6 -4 -10
-17 -10 -18 0 -20 2 -8 10 19 12 18 12 25 0z m362 -32 c-3 -7 -5 -2 -5 12 0
14 2 19 5 13 2 -7 2 -19 0 -25z m-487 -62 c-7 -7 -10 1 -9 25 0 32 1 33 10 10
6 -16 6 -28 -1 -35z m-2993 -38 c-3 -22 -4 -21 -11 4 -5 16 -5 36 0 45 7 16 8
15 11 -4 3 -13 3 -33 0 -45z m1350 30 c-3 -7 -5 -2 -5 12 0 14 2 19 5 13 2 -7
2 -19 0 -25z m-1657 7 c0 -8 -4 -15 -10 -15 -5 0 -10 7 -10 15 0 8 5 15 10 15
6 0 10 -7 10 -15z m-603 -67 c-3 -7 -5 -2 -5 12 0 14 2 19 5 13 2 -7 2 -19 0
-25z m4160 0 c-3 -8 -6 -5 -6 6 -1 11 2 17 5 13 3 -3 4 -12 1 -19z m-197 -19
c0 -10 -4 -19 -10 -19 -5 0 -10 12 -10 26 0 14 4 23 10 19 6 -3 10 -15 10 -26z
m-3911 -93 l-1 -41 -13 30 c-8 17 -14 41 -15 54 0 20 2 21 15 11 9 -8 15 -28
14 -54z m790 27 c-7 -10 -15 -20 -16 -22 -2 -2 -3 5 -3 17 0 14 6 22 16 22 14
0 15 -3 3 -17z m86 3 c17 -12 20 -28 21 -117 0 -67 -4 -109 -11 -119 -7 -8
-15 -28 -19 -43 -6 -24 -9 -27 -21 -17 -18 15 -19 33 -3 77 10 27 10 36 0 42
-15 9 -42 58 -42 76 0 7 9 24 20 38 11 14 20 37 20 51 0 29 8 32 35 12z m1958
7 c-7 -2 -19 -2 -25 0 -7 3 -2 5 12 5 14 0 19 -2 13 -5z m-478 -53 c-3 -5 -15
-10 -26 -10 -10 0 -19 5 -19 10 0 6 12 10 26 10 14 0 23 -4 19 -10z m-59 -21
c2 -4 -9 -10 -26 -14 -16 -4 -32 -11 -35 -16 -4 -5 -14 -9 -23 -9 -9 0 -34
-16 -54 -35 -21 -18 -38 -29 -38 -23 0 6 11 21 25 34 14 13 25 27 25 31 0 26
112 55 126 32z m158 -60 c-7 -11 -15 -11 -34 1 -13 9 -13 11 0 19 16 11 43 -5
34 -20z m-936 15 c34 -9 29 -36 -5 -28 -47 10 -54 14 -48 24 7 11 20 12 53 4z
m848 -60 c-4 -9 -9 -15 -11 -12 -3 3 -3 13 1 22 4 9 9 15 11 12 3 -3 3 -13 -1
-22z m-846 -29 c0 -12 -28 -35 -44 -35 -3 0 -6 11 -6 25 0 20 5 25 25 25 15 0
25 -6 25 -15z m670 -10 c0 -8 -4 -15 -10 -15 -5 0 -10 7 -10 15 0 8 5 15 10
15 6 0 10 -7 10 -15z m-1280 -135 c0 -4 -6 -13 -14 -19 -17 -14 -29 0 -20 22
5 15 34 13 34 -3z m3117 14 c-3 -3 -12 -4 -19 -1 -8 3 -5 6 6 6 11 1 17 -2 13
-5z m-1766 -41 c32 -88 36 -91 69 -71 15 10 22 10 32 0 20 -20 -3 -31 -56 -25
-40 5 -51 11 -67 37 -26 43 -25 86 3 86 5 0 13 -12 19 -27z m159 7 c0 -5 -2
-10 -4 -10 -3 0 -8 5 -11 10 -3 6 -1 10 4 10 6 0 11 -4 11 -10z m-66 -9 c9
-15 -18 -31 -34 -20 -13 8 -13 10 0 19 19 12 27 12 34 1z m-1484 -45 c0 -12 5
-27 11 -33 19 -19 -29 -23 -52 -4 l-22 17 24 25 c27 29 39 27 39 -5z m3474 19
c3 -8 1 -15 -4 -15 -6 0 -10 7 -10 15 0 8 2 15 4 15 2 0 6 -7 10 -15z m-3464
-116 c0 -11 -27 -12 -34 0 -3 4 -3 11 0 14 8 8 34 -3 34 -14z m53 -38 c17 -6
17 -8 3 -20 -10 -9 -13 -19 -7 -30 5 -9 6 -22 4 -29 -3 -7 1 -19 7 -27 10 -12
9 -15 -4 -15 -9 0 -16 -8 -16 -19 0 -30 -15 -33 -57 -15 l-38 16 35 12 c34 12
34 13 13 24 -12 7 -29 9 -37 6 -10 -4 -16 -1 -16 9 0 10 9 15 31 13 18 0 34 5
36 12 6 16 -49 16 -65 0 -6 -6 -15 -8 -19 -4 -14 13 14 41 48 47 18 4 35 12
37 18 4 12 18 13 45 2z m2301 -30 c3 -5 -1 -11 -9 -15 -15 -6 -29 7 -18 18 9
9 21 8 27 -3z m-1027 -7 c-3 -3 -12 -4 -19 -1 -8 3 -5 6 6 6 11 1 17 -2 13 -5z
m1376 -1 c-7 -2 -19 -2 -25 0 -7 3 -2 5 12 5 14 0 19 -2 13 -5z m482 -23 c3
-5 -1 -10 -9 -10 -9 0 -16 5 -16 10 0 6 4 10 9 10 6 0 13 -4 16 -10z m-495
-50 c0 -5 -7 -10 -15 -10 -8 0 -15 5 -15 10 0 6 7 10 15 10 8 0 15 -4 15 -10z
m860 -18 c0 -9 -5 -24 -10 -32 -7 -11 -10 -5 -10 23 0 23 4 36 10 32 6 -3 10
-14 10 -23z m-1210 -67 c11 -20 10 -28 -3 -48 -9 -14 -13 -34 -10 -46 4 -16
-1 -23 -21 -31 -14 -5 -26 -15 -26 -23 0 -19 -82 -104 -108 -112 -19 -6 -23
-12 -18 -33 3 -15 3 -21 0 -14 -6 14 -44 17 -44 3 0 -5 -14 -12 -30 -16 -25
-5 -30 -11 -25 -26 5 -15 1 -19 -19 -19 -16 0 -26 -6 -26 -14 0 -14 -52 -46
-75 -46 -6 0 -17 -11 -23 -25 -14 -30 -62 -36 -62 -7 -1 28 -40 71 -40 43 0
-5 6 -16 14 -23 29 -30 27 -52 -7 -75 -18 -13 -39 -23 -47 -23 -8 0 -3 -11 14
-29 l27 -29 -30 -10 c-18 -6 -31 -18 -31 -27 0 -12 -6 -15 -22 -10 -37 12 -43
11 -43 -5 0 -8 13 -21 28 -30 25 -14 29 -13 40 1 7 9 22 19 34 23 12 4 26 20
32 36 5 17 16 30 24 30 7 0 42 23 76 50 34 28 68 50 74 50 7 0 25 7 40 15 24
12 57 12 57 -2 0 -15 -37 -49 -50 -46 -12 4 -12 3 -1 -5 18 -13 5 -52 -19 -52
-10 0 -27 -15 -39 -35 -16 -28 -27 -35 -51 -35 -19 0 -38 -8 -51 -24 -12 -14
-37 -26 -60 -30 -22 -4 -42 -13 -45 -21 -4 -8 -17 -15 -29 -15 -17 0 -25 -7
-27 -22 -3 -20 -10 -23 -53 -25 -74 -4 -85 -10 -55 -33 20 -15 22 -21 13 -31
-10 -10 -21 -4 -52 29 -22 23 -43 42 -46 42 -3 0 -5 -11 -5 -25 0 -29 -16 -32
-48 -9 -21 14 -22 14 -22 -10 0 -40 -33 -33 -53 10 -10 20 -27 38 -37 41 -11
3 -20 12 -20 19 0 8 -5 14 -11 14 -5 0 -8 4 -4 10 3 5 12 7 20 3 27 -10 17 36
-10 49 -16 7 -25 19 -25 35 0 31 8 29 46 -12 31 -34 54 -45 54 -26 0 5 -15 25
-32 44 -18 20 -41 48 -50 64 -10 17 -27 29 -42 31 -14 2 -26 10 -26 18 0 8 -7
14 -15 14 -19 0 -19 -5 1 -25 16 -15 15 -26 -7 -56 -10 -13 -7 -22 11 -47 13
-18 30 -32 37 -32 7 0 13 -7 13 -15 0 -12 -4 -13 -19 -5 -31 16 -51 12 -51
-10 0 -22 -27 -17 -47 9 -10 13 -9 18 4 28 15 12 14 16 -10 41 -15 15 -27 35
-27 43 -1 37 -26 49 -97 49 -64 0 -73 3 -101 30 -18 17 -40 30 -49 31 -10 0
-45 16 -78 34 -33 19 -84 46 -114 60 -48 23 -76 42 -131 88 -8 6 -20 11 -26 9
-14 -3 -29 52 -19 68 3 5 18 10 33 10 15 0 34 4 42 10 9 5 19 5 28 -2 9 -8 16
-8 24 0 8 8 15 8 24 1 20 -16 185 -14 195 3 7 10 9 9 9 -3 0 -23 38 -69 65
-79 13 -5 38 -30 55 -55 30 -44 31 -50 25 -107 -7 -56 -6 -59 11 -50 11 5 26
7 34 4 18 -6 70 -61 70 -73 0 -12 37 -11 45 1 3 6 2 10 -3 10 -4 0 -18 9 -30
20 -17 17 -20 25 -12 40 5 10 19 21 29 25 27 8 52 76 42 112 -9 34 -3 113 12
131 5 7 17 10 27 7 22 -7 41 35 34 74 -6 26 -3 31 20 37 18 4 33 1 45 -10 21
-19 37 -21 45 -3 3 6 3 -1 -1 -16 -4 -22 1 -35 23 -58 27 -28 29 -29 36 -9 9
23 33 27 42 5 3 -8 12 -12 21 -9 11 5 15 0 15 -19 0 -56 12 -87 34 -87 28 0
50 15 42 29 -9 14 14 14 50 1 23 -9 30 -7 50 15 14 15 34 25 52 25 15 0 33 5
40 12 9 9 13 7 18 -5 11 -29 -3 -47 -36 -47 -34 0 -36 -5 -14 -48 12 -25 22
-32 43 -32 25 0 28 3 23 25 -5 29 4 32 29 9 15 -14 19 -13 43 11 15 14 24 30
21 36 -4 5 -2 16 3 25 8 14 10 14 21 0 15 -18 31 -21 31 -5 0 19 71 119 85
119 18 0 24 -21 11 -42 -7 -12 -7 -24 1 -40 7 -13 14 -32 16 -43 3 -11 5 -5 6
15 1 19 6 42 11 50 9 13 12 13 24 -3 12 -16 15 -14 41 23 21 30 26 47 22 70
-6 29 5 41 18 20 3 -5 15 -10 27 -10 17 0 20 4 14 30 -13 69 44 112 74 55z
m465 -25 c-3 -5 -13 -10 -21 -10 -8 0 -14 5 -14 10 0 6 9 10 21 10 11 0 17 -4
14 -10z m-635 -45 c0 -8 -7 -15 -15 -15 -8 0 -15 -8 -16 -17 0 -10 -3 -13 -5
-6 -6 15 13 53 26 53 6 0 10 -7 10 -15z m230 -5 c0 -13 -11 -13 -30 0 -12 8
-11 10 8 10 12 0 22 -4 22 -10z m-1213 -6 c-3 -3 -12 -4 -19 -1 -8 3 -5 6 6 6
11 1 17 -2 13 -5z m1209 -51 c-10 -10 -19 5 -10 18 6 11 8 11 12 0 2 -7 1 -15
-2 -18z m-389 -5 c-3 -8 -6 -5 -6 6 -1 11 2 17 5 13 3 -3 4 -12 1 -19z m693
-13 c0 -22 -46 -48 -65 -37 -15 8 -14 12 10 30 32 25 55 28 55 7z m-797 -15
c-3 -11 -7 -20 -9 -20 -2 0 -4 9 -4 20 0 11 4 20 9 20 5 0 7 -9 4 -20z m662
-90 c0 -11 -9 -14 -30 -12 -35 4 -39 7 -30 22 10 16 60 8 60 -10z m-90 -16
c-8 -9 -18 -26 -21 -39 -7 -30 -53 -40 -71 -17 -10 14 -8 19 11 27 12 6 35 20
50 32 31 24 56 21 31 -3z m-2395 -14 c0 -5 -9 -10 -21 -10 -11 0 -17 5 -14 10
3 6 13 10 21 10 8 0 14 -4 14 -10z m-40 -24 c0 -11 -19 -15 -25 -6 -3 5 1 10
9 10 9 0 16 -2 16 -4z m2570 -21 c0 -8 -7 -15 -15 -15 -16 0 -20 12 -8 23 11
12 23 8 23 -8z m-262 -37 c-3 -7 -19 -15 -37 -19 -44 -9 -47 -14 -26 -54 11
-19 16 -37 12 -41 -4 -4 1 -16 10 -26 20 -23 6 -41 -28 -36 -17 2 -25 11 -27
28 -2 14 -17 36 -34 49 -29 23 -31 24 -44 7 -15 -21 -49 -18 -49 4 0 9 11 16
27 18 14 2 32 10 38 18 7 8 19 14 26 14 8 0 14 4 14 9 0 5 14 12 30 16 17 4
30 11 30 16 0 5 14 9 31 9 20 0 29 -4 27 -12z m30 -95 c10 -30 9 -33 -9 -33
-20 0 -25 23 -13 55 8 19 8 19 22 -22z m-3868 2 c21 7 21 6 5 -19 -18 -27 -39
-32 -64 -17 -10 7 -11 13 -1 30 9 18 14 20 25 11 8 -6 24 -9 35 -5z m3948 -32
c-10 -2 -26 -2 -35 0 -10 3 -2 5 17 5 19 0 27 -2 18 -5z m-268 -33 c0 -6 0
-13 0 -17 -1 -5 -10 -7 -20 -5 -11 2 -20 0 -20 -5 -1 -24 -18 -35 -39 -24 -37
20 -23 63 24 73 23 5 55 -8 55 -22z m-1079 -48 c20 -24 31 -52 19 -52 -5 0
-23 13 -40 29 -23 20 -28 30 -18 34 21 9 23 8 39 -11z m1046 -34 c-3 -8 -6 -5
-6 6 -1 11 2 17 5 13 3 -3 4 -12 1 -19z m163 -28 c0 -10 -8 -23 -17 -28 -26
-14 -63 3 -63 28 0 17 6 20 40 20 33 0 40 -3 40 -20z m-180 -30 c0 -15 7 -20
24 -20 14 0 28 -4 31 -10 3 -5 19 -10 35 -10 36 0 49 -19 25 -36 -14 -10 -22
-11 -32 -2 -10 8 -17 8 -25 0 -8 -8 -18 -3 -39 17 -30 31 -49 81 -30 81 6 0
11 -9 11 -20z m-105 0 c3 -5 1 -10 -4 -10 -6 0 -11 5 -11 10 0 6 2 10 4 10 3
0 8 -4 11 -10z m-2668 -6 c-3 -3 -12 -4 -19 -1 -8 3 -5 6 6 6 11 1 17 -2 13
-5z m-294 -37 c-3 -5 -10 -4 -15 1 -6 6 -7 16 -3 22 6 9 9 9 16 -1 4 -7 5 -17
2 -22z m597 3 c0 -5 -7 -7 -15 -4 -8 4 -15 8 -15 10 0 2 7 4 15 4 8 0 15 -4
15 -10z m142 -41 c26 -17 46 -35 43 -39 -6 -9 -135 51 -135 63 0 17 47 5 92
-24z m1478 -30 c0 -13 -21 -22 -31 -12 -5 5 -11 24 -15 43 l-6 35 26 -29 c14
-16 26 -33 26 -37z m680 49 c0 -7 -4 -19 -9 -26 -6 -10 -12 -7 -25 12 -16 26
-16 26 9 26 14 0 25 -6 25 -12z m-2910 -47 c10 -22 22 -58 26 -80 4 -27 12
-41 22 -41 12 0 12 -3 2 -15 -14 -17 -19 -113 -7 -132 5 -7 21 -13 37 -13 22
0 33 -7 44 -28 8 -16 22 -34 30 -41 9 -8 16 -25 16 -40 0 -14 16 -50 35 -79
29 -42 41 -52 64 -52 40 0 54 19 37 52 -14 26 -12 38 6 38 13 0 68 -62 68 -76
0 -6 7 -17 15 -24 23 -19 18 -47 -10 -54 -13 -3 -42 1 -63 9 -21 9 -54 17 -73
18 -51 4 -96 32 -103 64 -4 19 -19 35 -44 48 -34 18 -37 23 -34 56 2 21 -1 40
-7 44 -6 3 -11 0 -12 -7 -3 -48 2 -140 10 -178 6 -25 10 -64 11 -87 0 -23 5
-45 10 -48 10 -6 15 -75 5 -75 -17 0 -75 36 -75 47 0 7 -10 14 -22 14 l-23 2
23 4 c27 5 31 47 5 61 -16 9 -16 11 0 27 9 9 17 31 16 48 0 18 1 65 4 105 2
40 0 75 -5 78 -4 3 -5 16 -2 30 4 14 2 24 -5 24 -6 0 -11 11 -11 24 0 14 -4
27 -9 31 -5 3 -7 29 -4 58 4 36 0 64 -11 91 -9 21 -16 58 -16 81 0 37 5 46 27
54 2 1 12 -17 23 -38z m3027 20 c4 -15 15 -21 47 -23 23 -2 41 -8 41 -15 0
-13 -55 -55 -101 -77 -41 -18 -50 -34 -29 -50 16 -11 13 -15 -26 -33 -24 -12
-45 -17 -47 -12 -6 15 -32 10 -32 -6 0 -18 -12 -19 -27 -4 -13 13 -33 4 -33
-17 0 -8 -9 -14 -21 -14 l-20 0 21 -30 c12 -16 19 -34 15 -39 -8 -15 -33 -2
-40 20 -4 10 -17 22 -31 25 -18 5 -24 13 -24 34 0 16 -6 31 -12 34 -7 4 -2 4
11 2 17 -4 25 1 28 15 5 16 11 19 30 14 22 -5 23 -4 11 17 -7 13 -19 27 -25
31 -13 8 -18 37 -7 37 3 0 13 -10 23 -21 9 -12 25 -20 34 -18 15 4 16 7 2 33
-9 16 -13 31 -11 33 7 8 46 -21 46 -34 0 -7 7 -13 15 -13 8 0 15 9 15 20 0 24
9 26 25 4 9 -14 15 -14 34 -5 27 15 23 35 -7 39 -32 5 -27 29 7 37 16 3 32 13
35 21 8 21 47 17 53 -5z m-152 -61 c-5 -8 -11 -8 -17 -2 -6 6 -7 16 -3 22 5 8
11 8 17 2 6 -6 7 -16 3 -22z m-2005 2 c0 -5 11 -15 25 -22 32 -17 32 -30 1
-30 -35 0 -68 35 -49 53 9 10 23 9 23 -1z m1438 -20 c2 -7 -3 -12 -12 -12 -9
0 -16 7 -16 16 0 17 22 14 28 -4z m345 1 c-7 -2 -19 -2 -25 0 -7 3 -2 5 12 5
14 0 19 -2 13 -5z m-38 -62 c3 -7 3 -16 1 -18 -6 -6 -46 35 -46 47 0 14 38
-11 45 -29z m82 -1 c-13 -19 -15 -20 -21 -3 -5 11 -1 22 11 31 23 17 29 -1 10
-28z m-427 10 c0 -17 -3 -19 -19 -8 -21 13 -19 28 5 28 8 0 14 -9 14 -20z
m253 -1 c13 -18 13 -24 0 -51 -11 -21 -18 -27 -26 -19 -6 6 -19 11 -28 11 -14
0 -53 59 -45 68 2 1 15 -2 30 -8 21 -8 28 -7 32 5 8 21 20 19 37 -6z m-1492
-32 c-5 -5 -17 -4 -30 3 -30 15 -16 32 15 18 15 -7 21 -15 15 -21z m1710 10
c-1 -12 -15 -9 -19 4 -3 6 1 10 8 8 6 -3 11 -8 11 -12z m-1588 -11 c9 -7 17
-18 17 -25 0 -19 -31 -12 -62 14 l-30 25 29 0 c15 0 36 -7 46 -14z m1265 -15
c25 -21 28 -31 9 -31 -22 0 -51 26 -43 38 9 15 9 15 34 -7z m-2326 -51 c3 -19
0 -30 -7 -30 -7 0 -10 11 -7 30 2 17 5 30 7 30 2 0 5 -13 7 -30z m2523 -6 c13
-9 32 -13 42 -10 21 7 93 -54 93 -78 0 -8 8 -17 17 -20 11 -5 13 -10 6 -17 -8
-8 -17 -5 -32 10 -12 12 -21 26 -21 32 0 7 -11 8 -29 4 -23 -5 -34 -1 -55 19
-14 14 -33 26 -42 26 -16 0 -43 26 -44 43 0 13 40 8 65 -9z m-205 -20 c0 -14
-12 -19 -23 -8 -9 9 4 35 14 28 5 -3 9 -12 9 -20z m-56 -34 c31 -32 58 -50 73
-50 12 0 23 4 23 9 0 5 13 11 29 14 16 3 40 9 55 13 29 7 35 -11 14 -45 -6
-10 -8 -26 -3 -37 6 -15 8 -16 12 -4 11 31 37 50 68 50 35 0 55 -15 55 -42 0
-27 -36 -23 -44 4 -4 19 -8 20 -18 10 -11 -11 -10 -16 5 -26 9 -7 17 -18 17
-24 0 -21 -20 -23 -37 -2 -21 24 -33 26 -33 5 0 -8 7 -15 15 -15 8 0 15 -6 15
-14 0 -8 3 -22 6 -30 8 -22 -20 -11 -54 21 -24 23 -27 23 -39 7 -11 -16 -14
-15 -32 7 -24 29 -26 39 -6 39 8 0 15 7 15 15 0 8 -7 15 -15 15 -8 0 -15 -4
-15 -10 0 -5 -9 -10 -20 -10 -10 0 -24 -9 -30 -20 -15 -28 -32 -25 -52 10 -9
17 -25 30 -35 31 -19 0 -82 69 -64 69 6 0 11 -3 11 -7 0 -9 48 -33 63 -33 6 0
16 -8 23 -17 10 -14 15 -15 25 -6 10 10 8 14 -7 20 -10 4 -28 18 -39 32 -11
14 -28 32 -37 40 -21 18 -23 31 -5 31 6 0 34 -23 61 -50z m130 29 c-3 -5 -10
-7 -15 -3 -5 3 -7 10 -3 15 3 5 10 7 15 3 5 -3 7 -10 3 -15z m416 11 c0 -5 -5
-10 -11 -10 -5 0 -7 5 -4 10 3 6 8 10 11 10 2 0 4 -4 4 -10z m-662 -36 c-10
-10 -28 6 -28 24 0 15 1 15 17 -1 9 -9 14 -19 11 -23z m616 10 c9 -3 16 -12
16 -20 0 -12 -4 -12 -20 -2 -30 19 -27 34 4 22z m-1259 -20 c9 -4 25 -24 35
-45 23 -43 27 -74 7 -48 -7 9 -21 19 -32 23 -27 8 -53 76 -29 76 1 0 10 -3 19
-6z m1495 -38 c0 -11 -19 -15 -25 -6 -3 5 1 10 9 10 9 0 16 -2 16 -4z m-375
-26 c-3 -5 -10 -10 -16 -10 -5 0 -9 5 -9 10 0 6 7 10 16 10 8 0 12 -4 9 -10z
m-3483 -32 c-9 -9 -15 -9 -24 0 -9 9 -7 12 12 12 19 0 21 -3 12 -12z m2968
-18 c0 -5 -4 -10 -10 -10 -5 0 -10 5 -10 10 0 6 5 10 10 10 6 0 10 -4 10 -10z
m108 -5 c4 -9 21 -19 38 -24 19 -5 30 -15 32 -29 4 -27 -8 -28 -41 -2 -24 19
-46 13 -32 -9 12 -20 -17 -22 -48 -2 -33 21 -33 20 17 35 9 3 12 13 9 25 -6
24 12 28 25 6z m646 -36 c-9 -10 -24 -19 -32 -19 -8 0 -31 -13 -51 -28 -49
-38 -96 -28 -55 12 8 9 27 19 42 23 15 3 33 14 40 24 13 18 64 30 71 16 1 -5
-5 -17 -15 -28z m-3859 -3 c18 -13 18 -14 -2 -25 -21 -11 -83 -5 -83 8 0 29
54 40 85 17z m3389 -40 c14 -19 26 -39 26 -45 0 -16 -20 -13 -26 4 -4 8 -12
15 -19 15 -13 0 -25 21 -25 46 0 23 16 16 44 -20z m180 19 c-4 -8 -8 -15 -10
-15 -2 0 -4 7 -4 15 0 8 4 15 10 15 5 0 7 -7 4 -15z m-124 -16 c0 -5 -4 -9
-10 -9 -5 0 -10 7 -10 16 0 8 5 12 10 9 6 -3 10 -10 10 -16z m100 -30 c0 -5
-4 -9 -10 -9 -5 0 -10 7 -10 16 0 8 5 12 10 9 6 -3 10 -10 10 -16z m131 11 c5
0 9 -13 9 -30 0 -23 -7 -32 -34 -45 -45 -21 -59 -13 -41 23 8 15 16 35 20 46
3 11 11 16 21 12 9 -3 20 -6 25 -6z m-536 -29 c-6 -5 -25 10 -25 20 0 5 6 4
14 -3 8 -7 12 -15 11 -17z m192 23 c31 -9 36 -43 10 -65 l-22 -19 23 -6 c13
-4 22 -14 22 -25 0 -25 12 -24 39 5 16 17 21 31 16 45 -5 15 -2 21 9 21 9 0
16 -5 16 -11 0 -6 7 -17 15 -25 8 -9 15 -19 15 -24 0 -13 -40 -49 -73 -65 -25
-12 -29 -12 -34 3 -4 9 -33 43 -65 74 -60 58 -72 80 -39 71 11 -3 21 2 24 11
7 18 12 19 44 10z m141 -14 c10 -16 10 -20 -2 -20 -7 0 -16 9 -19 20 -3 11 -2
20 2 20 3 0 12 -9 19 -20z m132 11 c0 -20 -13 -42 -31 -52 -13 -6 -19 -6 -19
1 0 5 7 10 15 10 9 0 15 9 15 25 0 14 5 25 10 25 6 0 10 -4 10 -9z m-2874 -43
c-4 -48 -17 -98 -27 -104 -10 -6 -12 119 -2 129 17 18 32 5 29 -25z m84 -8 c0
-11 -4 -20 -10 -20 -5 0 -10 9 -10 20 0 11 5 20 10 20 6 0 10 -9 10 -20z
m2365 10 c3 -5 1 -10 -4 -10 -6 0 -11 5 -11 10 0 6 2 10 4 10 3 0 8 -4 11 -10z
m-1657 -35 c2 -9 -1 -22 -8 -29 -13 -13 -40 17 -40 46 0 14 4 16 23 9 12 -5
24 -16 25 -26z m1707 4 c4 -6 5 -12 2 -15 -7 -7 -37 7 -37 17 0 13 27 11 35
-2z m165 1 c0 -5 -7 -10 -15 -10 -8 0 -15 5 -15 10 0 6 7 10 15 10 8 0 15 -4
15 -10z m560 0 c0 -5 -12 -17 -27 -27 -16 -10 -30 -20 -33 -23 -3 -3 -23 -18
-45 -35 -33 -25 -50 -30 -105 -32 -56 -3 -67 -6 -83 -28 -10 -14 -27 -25 -37
-25 -10 0 -22 -4 -25 -10 -3 -5 -31 -10 -61 -10 -57 0 -66 9 -44 51 9 16 22
19 75 19 35 0 67 5 70 10 3 6 19 10 34 10 26 0 63 13 158 56 17 8 34 14 38 14
4 0 18 9 32 20 27 21 53 26 53 10z m-367 -25 c-3 -15 -56 -23 -84 -12 -23 9
-23 9 -4 18 26 11 91 7 88 -6z m-2133 -4 c0 -12 -21 -19 -37 -13 -22 8 -14 22
12 22 14 0 25 -4 25 -9z m210 -21 c8 -5 11 -12 8 -16 -10 -9 -38 3 -38 16 0
12 10 13 30 0z m1626 -14 c18 -19 18 -26 -1 -26 -8 0 -15 2 -15 4 0 2 -3 11
-6 20 -8 20 3 21 22 2z m-1529 -52 c7 -18 -17 -38 -31 -24 -11 11 -1 40 14 40
6 0 13 -7 17 -16z m-764 -111 c-4 -10 -9 -11 -16 -4 -5 5 -7 18 -3 28 6 14 9
15 16 4 4 -8 6 -21 3 -28z m3394 -115 c-3 -7 -5 -2 -5 12 0 14 2 19 5 13 2 -7
2 -19 0 -25z m-20 -130 c-3 -7 -5 -2 -5 12 0 14 2 19 5 13 2 -7 2 -19 0 -25z
m-103 -43 c3 -8 1 -15 -4 -15 -6 0 -10 7 -10 15 0 8 2 15 4 15 2 0 6 -7 10
-15z m79 -20 c-7 -21 -13 -19 -13 6 0 11 4 18 10 14 5 -3 7 -12 3 -20z m-86
-87 c-3 -8 -6 -5 -6 6 -1 11 2 17 5 13 3 -3 4 -12 1 -19z m-27 -34 c0 -2 -7
-4 -15 -4 -8 0 -15 4 -15 10 0 5 7 7 15 4 8 -4 15 -8 15 -10z m57 -16 c-3 -7
-5 -2 -5 12 0 14 2 19 5 13 2 -7 2 -19 0 -25z m-22 -27 c3 -5 1 -12 -5 -16 -5
-3 -10 1 -10 9 0 18 6 21 15 7z m-200 -61 c-3 -5 -10 -10 -16 -10 -5 0 -9 5
-9 10 0 6 7 10 16 10 8 0 12 -4 9 -10z m-361 -467 c-5 -5 -12 -12 -16 -18 -4
-6 -8 -2 -8 8 0 9 7 17 17 17 9 0 12 -3 7 -7z m-14 -118 c0 -8 -4 -15 -10 -15
-5 0 -7 7 -4 15 4 8 8 15 10 15 2 0 4 -7 4 -15z m-85 -35 c-3 -5 -15 -10 -26
-10 -11 0 -17 5 -14 10 3 6 15 10 26 10 11 0 17 -4 14 -10z m-18 -106 c-3 -3
-12 -4 -19 -1 -8 3 -5 6 6 6 11 1 17 -2 13 -5z m63 -120 c0 -16 -16 -19 -25
-4 -8 13 4 32 16 25 5 -4 9 -13 9 -21z m538 -937 c5 -24 -15 -21 -28 4 -10 18
-9 20 7 17 10 -2 19 -11 21 -21z m19 -149 c-3 -8 -6 -5 -6 6 -1 11 2 17 5 13
3 -3 4 -12 1 -19z m-44 -3 c4 -8 2 -17 -3 -20 -6 -4 -10 3 -10 14 0 25 6 27
13 6z m62 -84 c7 -12 -12 -24 -25 -16 -11 7 -4 25 10 25 5 0 11 -4 15 -9z
m-266 -118 c-7 -10 -15 -20 -16 -22 -2 -2 -3 5 -3 17 0 14 6 22 16 22 14 0 15
-3 3 -17z m181 -56 c0 -18 -36 -51 -44 -39 -6 9 24 52 37 52 4 0 7 -6 7 -13z
m203 6 c-7 -2 -19 -2 -25 0 -7 3 -2 5 12 5 14 0 19 -2 13 -5z m-312 -76 c-13
-13 -26 -3 -16 12 3 6 11 8 17 5 6 -4 6 -10 -1 -17z m46 -114 c-3 -10 -5 -2
-5 17 0 19 2 27 5 18 2 -10 2 -26 0 -35z m520 -420 c-3 -10 -5 -2 -5 17 0 19
2 27 5 18 2 -10 2 -26 0 -35z m-1350 -164 c12 -4 50 -9 85 -10 35 -1 96 -8
136 -15 41 -8 109 -14 152 -14 56 0 92 -6 125 -20 44 -19 48 -24 101 -135 50
-107 55 -123 61 -208 5 -76 3 -95 -9 -105 -12 -10 -46 -10 -154 -3 -77 6 -161
15 -189 20 -27 5 -97 10 -154 10 -58 1 -118 5 -135 10 -17 5 -83 15 -146 21
-63 7 -144 15 -180 18 -62 7 -65 8 -71 37 -3 17 1 56 8 88 7 31 15 114 18 184
4 83 10 130 18 135 14 10 303 -1 334 -13z m-1707 -170 c0 -5 -4 -9 -10 -9 -5
0 -10 7 -10 16 0 8 5 12 10 9 6 -3 10 -10 10 -16z m3190 -825 c0 -8 -5 -12
-10 -9 -6 4 -8 11 -5 16 9 14 15 11 15 -7z m-70 -77 c0 -5 7 -15 15 -24 15
-15 13 -47 -5 -67 -13 -13 -30 3 -30 30 0 13 -4 24 -9 24 -5 0 -18 16 -30 35
l-21 36 23 8 c17 7 26 4 39 -12 10 -12 18 -26 18 -30z m-960 9 c0 -3 -4 -8
-10 -11 -5 -3 -10 -1 -10 4 0 6 5 11 10 11 6 0 10 -2 10 -4z m-487 -96 c6 -24
3 -25 -17 -4 -9 8 -14 20 -10 25 8 13 21 3 27 -21z m592 -22 c16 -122 5 -199
-47 -305 -47 -97 -140 -200 -197 -218 -12 -3 -21 -10 -21 -15 0 -17 -163 -60
-231 -60 -54 0 -74 16 -32 26 15 3 35 8 43 11 8 2 42 7 75 9 33 3 64 9 70 15
5 5 19 9 31 9 12 0 27 7 34 15 7 8 18 15 24 15 18 0 103 88 149 155 47 67 79
152 77 205 -4 78 2 190 10 190 4 0 11 -24 15 -52z m-978 -30 c-2 -13 -4 -3 -4
22 0 25 2 35 4 23 2 -13 2 -33 0 -45z m533 37 c0 -14 -4 -25 -10 -25 -11 0
-14 33 -3 43 11 11 13 8 13 -18z m1356 -41 c19 -66 26 -134 15 -134 -6 0 -11
8 -11 18 0 10 -4 22 -9 28 -15 16 -43 113 -36 124 12 20 29 4 41 -36z m-1306
-4 c0 -5 -4 -10 -10 -10 -5 0 -10 5 -10 10 0 6 5 10 10 10 6 0 10 -4 10 -10z
m-175 -30 c-3 -5 -10 -10 -16 -10 -5 0 -9 5 -9 10 0 6 7 10 16 10 8 0 12 -4 9
-10z m309 -46 c4 -15 6 -28 4 -29 -4 -4 -111 -22 -208 -35 -36 -4 -69 -5 -73
0 -14 12 9 21 66 25 28 2 81 8 117 12 57 7 65 11 68 31 5 30 18 28 26 -4z
m206 6 c0 -22 -20 -26 -38 -8 -19 19 -14 28 13 28 18 0 25 -5 25 -20z m-29
-50 c24 -13 25 -30 2 -30 -26 0 -47 16 -39 29 9 14 12 14 37 1z m-494 -36 c-3
-3 -12 -4 -19 -1 -8 3 -5 6 6 6 11 1 17 -2 13 -5z m463 -39 c7 -9 10 -18 7
-21 -10 -11 -37 5 -37 21 0 19 14 19 30 0z m-725 -15 c3 -5 1 -10 -4 -10 -6 0
-11 5 -11 10 0 6 2 10 4 10 3 0 8 -4 11 -10z m675 -121 c0 -11 -4 -17 -10 -14
-5 3 -10 13 -10 21 0 8 5 14 10 14 6 0 10 -9 10 -21z m-603 -21 c-3 -7 -5 -2
-5 12 0 14 2 19 5 13 2 -7 2 -19 0 -25z m529 -23 c3 -8 3 -19 0 -24 -10 -16
-36 -1 -36 20 0 22 28 26 36 4z m-369 -77 c-3 -7 -5 -2 -5 12 0 14 2 19 5 13
2 -7 2 -19 0 -25z m266 18 c6 -15 -11 -36 -29 -36 -9 0 -9 6 -1 25 13 28 22
31 30 11z m43 -13 c-10 -10 -19 5 -10 18 6 11 8 11 12 0 2 -7 1 -15 -2 -18z
m-166 -3 c9 -16 8 -20 -5 -20 -8 0 -15 9 -15 20 0 11 2 20 5 20 2 0 9 -9 15
-20z m-73 -12 c-3 -8 -6 -5 -6 6 -1 11 2 17 5 13 3 -3 4 -12 1 -19z m-127 -38
c0 -5 -6 -10 -14 -10 -8 0 -18 5 -21 10 -3 6 3 10 14 10 12 0 21 -4 21 -10z
m92 -33 c4 -6 5 -13 3 -16 -8 -7 -85 22 -85 32 0 13 73 -2 82 -16z m1348 -147
c0 -5 -4 -10 -10 -10 -5 0 -10 5 -10 10 0 6 5 10 10 10 6 0 10 -4 10 -10z
m147 -462 c-3 -8 -6 -5 -6 6 -1 11 2 17 5 13 3 -3 4 -12 1 -19z m-169 -115
c-10 -2 -26 -2 -35 0 -10 3 -2 5 17 5 19 0 27 -2 18 -5z m72 -22 c0 -14 -12
-20 -26 -14 -22 8 -17 32 6 26 11 -3 20 -9 20 -12z m80 5 c0 -8 7 -17 16 -20
9 -3 14 -15 12 -28 -4 -28 -22 -26 -26 3 -2 12 -12 24 -23 26 -22 6 -25 19 -6
26 21 9 27 7 27 -7z m67 -333 c-3 -10 -5 -2 -5 17 0 19 2 27 5 18 2 -10 2 -26
0 -35z m63 -504 c0 -5 -7 -9 -15 -9 -15 0 -20 12 -9 23 8 8 24 -1 24 -14z
m-2713 -5841 c-3 -8 -6 -5 -6 6 -1 11 2 17 5 13 3 -3 4 -12 1 -19z m-21 -239
c21 9 24 8 24 -8 0 -10 -9 -21 -20 -24 -23 -6 -39 -56 -20 -67 15 -9 10 -42
-7 -48 -9 -2 -13 7 -13 28 0 22 -8 38 -25 52 -18 14 -25 29 -25 54 l0 35 31
-17 c25 -12 37 -14 55 -5z"/>
<path d="M9292 17160 c0 -14 2 -19 5 -12 2 6 2 18 0 25 -3 6 -5 1 -5 -13z"/>
<path d="M8941 16859 c7 -14 14 -18 21 -11 13 13 2 32 -18 32 -12 0 -13 -4 -3
-21z"/>
<path d="M9001 16848 c-1 -11 9 -20 24 -24 14 -3 25 -10 25 -15 0 -5 8 -9 17
-9 14 0 14 3 -5 20 -12 11 -28 20 -36 20 -8 0 -17 6 -19 13 -3 7 -6 5 -6 -5z"/>
<path d="M9140 16830 c-12 -8 -11 -10 8 -10 12 0 22 5 22 10 0 13 -11 13 -30
0z"/>
<path d="M9193 16803 c9 -2 25 -2 35 0 9 3 1 5 -18 5 -19 0 -27 -2 -17 -5z"/>
<path d="M9403 16652 c-15 -9 -6 -22 30 -45 41 -26 59 -17 46 23 -9 23 -17 30
-37 30 -15 0 -32 -4 -39 -8z"/>
<path d="M9020 16596 c0 -9 7 -16 16 -16 9 0 14 5 12 12 -6 18 -28 21 -28 4z"/>
<path d="M9057 16556 c-3 -8 -19 -17 -36 -21 -40 -8 -45 -45 -6 -45 13 0 28
-8 34 -17 13 -25 25 -9 12 15 -16 31 -13 50 9 57 11 3 20 11 20 16 0 14 -27
11 -33 -5z"/>
<path d="M9496 16553 c-12 -12 -6 -43 9 -43 8 0 15 2 15 4 0 2 3 11 6 19 5 15
-19 31 -30 20z"/>
<path d="M8978 16413 c6 -2 18 -2 25 0 6 3 1 5 -13 5 -14 0 -19 -2 -12 -5z"/>
<path d="M9000 16354 c0 -17 22 -14 28 4 2 7 -3 12 -12 12 -9 0 -16 -7 -16
-16z"/>
<path d="M9074 16336 c-8 -22 3 -33 18 -18 9 9 9 15 0 24 -9 9 -13 7 -18 -6z"/>
<path d="M9811 17174 c-26 -33 -19 -47 35 -79 42 -25 45 -25 70 -9 22 15 27
15 35 3 5 -8 9 -24 9 -36 0 -16 6 -23 20 -23 13 0 20 -7 20 -20 0 -15 -7 -20
-25 -20 -18 0 -28 -7 -35 -26 -9 -21 -15 -25 -35 -20 -22 6 -25 3 -25 -19 0
-22 4 -25 33 -25 17 0 48 -3 67 -6 55 -9 85 20 82 81 -1 25 -9 58 -18 73 -16
27 -78 75 -165 125 l-47 27 -21 -26z"/>
<path d="M9741 17058 c-5 -13 -32 -48 -60 -80 -28 -31 -51 -60 -51 -65 0 -5
25 -22 56 -38 55 -29 56 -29 70 -10 7 11 17 25 21 30 49 61 53 68 42 81 -9 11
-7 20 6 40 9 14 15 27 13 28 -66 43 -85 46 -97 14z"/>
<path d="M7262 16895 c0 -16 2 -22 5 -12 2 9 2 23 0 30 -3 6 -5 -1 -5 -18z"/>
<path d="M7910 16024 c0 -8 5 -12 10 -9 6 4 8 11 5 16 -9 14 -15 11 -15 -7z"/>
<path d="M8751 16000 c-9 -27 -8 -31 4 -27 15 6 11 -17 -8 -41 -7 -8 -5 -18 7
-30 8 -10 19 -33 22 -50 6 -29 4 -32 -20 -32 -21 0 -26 5 -26 25 0 29 -15 33
-24 8 -5 -11 1 -23 15 -34 15 -11 20 -23 16 -38 -7 -29 9 -26 39 6 24 26 25
26 39 7 8 -10 15 -14 15 -9 0 6 5 17 10 25 8 13 11 12 24 -5 13 -19 15 -19 33
-3 12 11 27 15 41 11 34 -8 29 31 -8 57 -31 22 -33 21 -30 -17 1 -21 -3 -23
-39 -21 -36 1 -41 4 -41 24 0 13 -9 28 -20 34 -24 13 -26 35 -5 44 22 8 18 37
-9 70 l-23 28 -12 -32z"/>
<path d="M8691 16004 c0 -11 3 -14 6 -6 3 7 2 16 -1 19 -3 4 -6 -2 -5 -13z"/>
<path d="M8605 15970 c3 -5 8 -10 11 -10 2 0 4 5 4 10 0 6 -5 10 -11 10 -5 0
-7 -4 -4 -10z"/>
<path d="M8975 15949 c-4 -10 -13 -19 -21 -19 -23 0 -16 -24 17 -58 37 -38 56
-41 55 -9 -1 15 5 23 21 25 l23 3 -25 27 c-14 15 -25 30 -25 33 0 4 -9 9 -20
12 -13 3 -21 -1 -25 -14z m43 -43 c3 -12 -1 -17 -10 -14 -7 3 -15 13 -16 22
-3 12 1 17 10 14 7 -3 15 -13 16 -22z"/>
<path d="M8642 15933 c3 -19 48 -32 48 -14 0 10 -31 31 -45 31 -4 0 -5 -8 -3
-17z"/>
<path d="M9212 15900 c0 -14 2 -19 5 -12 2 6 2 18 0 25 -3 6 -5 1 -5 -13z"/>
<path d="M8580 15900 c0 -5 5 -10 10 -10 6 0 10 5 10 10 0 6 -4 10 -10 10 -5
0 -10 -4 -10 -10z"/>
<path d="M9050 15805 c0 -8 4 -15 10 -15 5 0 7 7 4 15 -4 8 -8 15 -10 15 -2 0
-4 -7 -4 -15z"/>
<path d="M8928 15763 c18 -7 15 -50 -4 -57 -14 -5 -13 -10 7 -31 23 -23 24
-23 31 -4 4 10 17 19 28 19 11 0 20 6 20 14 0 14 -69 67 -86 65 -5 0 -3 -3 4
-6z"/>
<path d="M8790 15740 c0 -5 5 -10 11 -10 5 0 7 5 4 10 -3 6 -8 10 -11 10 -2 0
-4 -4 -4 -10z"/>
<path d="M9020 15740 c0 -5 5 -10 10 -10 6 0 10 5 10 10 0 6 -4 10 -10 10 -5
0 -10 -4 -10 -10z"/>
<path d="M8630 15710 c0 -13 5 -20 13 -17 6 2 12 10 12 17 0 7 -6 15 -12 18
-8 2 -13 -5 -13 -18z"/>
<path d="M8816 15722 c-3 -6 -1 -22 6 -36 10 -22 9 -28 -6 -39 -16 -12 -16
-15 -3 -26 13 -10 16 -9 22 8 7 25 23 27 31 6 9 -23 24 -18 24 8 -1 23 -21 57
-35 57 -4 0 -13 7 -20 17 -8 10 -14 12 -19 5z"/>
<path d="M8710 15560 c0 -5 5 -10 11 -10 5 0 7 5 4 10 -3 6 -8 10 -11 10 -2 0
-4 -4 -4 -10z"/>
<path d="M8785 15560 c-3 -6 -1 -10 6 -10 6 0 17 -7 24 -17 7 -10 14 -12 18
-6 4 6 -4 18 -18 27 -15 10 -26 12 -30 6z"/>
<path d="M8874 15558 c3 -7 9 -20 12 -28 7 -20 42 -43 53 -35 17 10 -1 46 -30
60 -34 18 -42 19 -35 3z"/>
<path d="M8685 15500 c3 -5 8 -10 11 -10 2 0 4 5 4 10 0 6 -5 10 -11 10 -5 0
-7 -4 -4 -10z"/>
<path d="M6401 15164 c0 -11 3 -14 6 -6 3 7 2 16 -1 19 -3 4 -6 -2 -5 -13z"/>
<path d="M8524 11074 c3 -9 6 -27 6 -42 0 -34 15 -17 23 26 6 28 4 32 -14 32
-15 0 -19 -5 -15 -16z"/>
<path d="M8630 11056 c0 -8 -6 -17 -12 -19 -7 -3 -3 -6 10 -6 16 -1 22 5 22
19 0 11 -4 20 -10 20 -5 0 -10 -6 -10 -14z"/>
<path d="M8689 11066 c-7 -7 2 -86 10 -86 3 0 6 18 5 40 -1 40 -6 55 -15 46z"/>
<path d="M8898 11005 c2 -19 6 -35 8 -35 2 0 4 16 4 35 0 19 -4 35 -8 35 -4 0
-6 -16 -4 -35z"/>
<path d="M8995 11010 c-8 -13 20 -24 41 -16 20 8 9 26 -16 26 -10 0 -22 -5
-25 -10z"/>
<path d="M9120 11001 c0 -17 18 -21 24 -6 3 9 0 15 -9 15 -8 0 -15 -4 -15 -9z"/>
<path d="M8840 10979 c0 -5 5 -7 10 -4 6 3 10 8 10 11 0 2 -4 4 -10 4 -5 0
-10 -5 -10 -11z"/>
<path d="M8848 10873 c6 -2 18 -2 25 0 6 3 1 5 -13 5 -14 0 -19 -2 -12 -5z"/>
<path d="M9105 10850 c3 -5 13 -10 21 -10 8 0 14 5 14 10 0 6 -9 10 -21 10
-11 0 -17 -4 -14 -10z"/>
<path d="M8220 20600 c0 -13 60 -13 80 0 11 7 2 10 -32 10 -27 0 -48 -4 -48
-10z"/>
<path d="M8505 19859 c6 -28 -1 -41 -33 -58 -19 -10 -22 -18 -17 -42 6 -25 4
-29 -14 -29 -11 0 -23 -4 -26 -10 -3 -5 -1 -10 5 -10 6 0 18 -16 26 -35 16
-40 26 -43 61 -15 33 26 40 25 47 -5 6 -23 11 -25 61 -25 44 0 56 4 65 20 6
11 16 20 23 20 7 0 20 -9 30 -20 20 -24 50 -26 68 -4 11 13 8 19 -17 39 -16
14 -49 32 -74 40 -25 9 -58 23 -73 31 -16 8 -37 14 -47 14 -10 0 -20 6 -23 14
-7 17 35 30 63 21 11 -3 29 -1 41 6 20 10 20 12 6 21 -10 5 -45 15 -80 22 -34
8 -70 17 -80 21 -15 6 -17 4 -12 -16z"/>
<path d="M9180 19350 c0 -20 25 -38 36 -27 8 7 -15 47 -26 47 -6 0 -10 -9 -10
-20z"/>
<path d="M8035 19015 c-11 -8 -25 -13 -32 -11 -7 3 -29 -4 -48 -15 -40 -24
-44 -48 -16 -88 19 -27 38 -34 227 -87 72 -20 127 -18 148 5 23 25 12 30 -71
37 -37 3 -79 9 -93 14 -14 5 -37 11 -52 14 -78 17 20 59 174 75 118 12 134 11
216 -20 13 -5 37 -9 55 -8 l32 0 -24 17 c-66 45 -180 70 -356 77 -118 5 -143
4 -160 -10z"/>
<path d="M7216 1904 c-12 -12 -14 -20 -7 -27 8 -8 16 -6 28 6 12 12 14 20 6
28 -7 7 -15 5 -27 -7z"/>
<path d="M6320 1830 c0 -5 5 -10 10 -10 6 0 10 5 10 10 0 6 -4 10 -10 10 -5 0
-10 -4 -10 -10z"/>
<path d="M5412 1438 c-17 -11 -30 -24 -27 -28 6 -10 45 -1 45 10 0 5 10 10 22
12 18 3 19 5 7 15 -12 9 -21 8 -47 -9z"/>
<path d="M5518 1383 c7 -3 16 -2 19 1 4 3 -2 6 -13 5 -11 0 -14 -3 -6 -6z"/>
<path d="M5238 1303 c7 -3 16 -2 19 1 4 3 -2 6 -13 5 -11 0 -14 -3 -6 -6z"/>
<path d="M9303 1283 c-7 -2 -13 -14 -13 -25 0 -28 34 -19 38 10 3 22 -2 25
-25 15z"/>
<path d="M9260 1189 c0 -18 2 -19 15 -9 8 7 15 16 15 21 0 5 -7 9 -15 9 -9 0
-15 -9 -15 -21z"/>
<path d="M9090 1012 c0 -11 -9 -27 -20 -37 -16 -14 -20 -31 -20 -81 0 -35 -5
-66 -11 -70 -6 -3 8 -15 33 -26 36 -16 57 -18 133 -13 129 8 205 8 248 0 39
-8 45 -1 23 24 -7 9 -18 31 -24 49 -10 28 -8 36 8 52 11 11 20 25 20 30 0 6
12 22 26 35 21 19 24 28 15 38 -13 16 -61 11 -61 -6 0 -6 -17 -31 -38 -56 -21
-25 -41 -54 -45 -63 -4 -12 -18 -18 -39 -19 -24 -1 -27 -3 -10 -6 12 -2 22
-11 22 -20 0 -25 -118 -14 -155 15 -15 12 -35 22 -44 22 -26 0 -38 31 -35 93
2 44 0 57 -12 57 -7 0 -14 -8 -14 -18z"/>
<path d="M10146 974 c-10 -25 -7 -34 9 -34 8 0 15 9 15 19 0 26 -16 35 -24 15z"/>
<path d="M9676 934 c-3 -9 -6 -36 -6 -60 0 -25 -5 -54 -11 -66 -6 -11 -8 -22
-5 -25 7 -7 166 -4 179 4 14 9 -16 23 -36 17 -9 -3 -31 -2 -48 1 -28 6 -30 10
-25 35 3 19 0 33 -10 41 -11 9 -14 22 -10 41 6 31 -17 41 -28 12z"/>
<path d="M10312 904 c-12 -8 -22 -22 -22 -30 0 -18 29 -18 54 1 11 8 30 15 42
15 12 0 24 7 28 15 8 21 -72 20 -102 -1z"/>
<path d="M10101 880 c-11 -16 -21 -34 -21 -40 0 -11 83 -13 143 -4 33 6 37 10
37 37 0 17 -3 27 -7 23 -4 -4 -8 -15 -8 -24 0 -12 -10 -18 -33 -20 -26 -3 -39
3 -61 27 l-28 30 -22 -29z"/>
<path d="M9880 820 c0 -5 9 -10 20 -10 11 0 20 5 20 10 0 6 -9 10 -20 10 -11
0 -20 -4 -20 -10z"/>
</g>
</svg>

