<svg width="17" height="17" viewBox="0 0 17 17" fill="none" xmlns="http://www.w3.org/2000/svg">
<g id="Group 724">
<path id="Icon" fill-rule="evenodd" clip-rule="evenodd" d="M5.43056 0C5.82176 0 6.13889 0.317132 6.13889 0.708333V1.88889H10.8611V0.708333C10.8611 0.317132 11.1782 0 11.5694 0C11.9606 0 12.2778 0.317132 12.2778 0.708333V1.88889H14.4028C15.8372 1.88889 17 3.0517 17 4.48611V14.4028C17 15.8372 15.8372 17 14.4028 17H2.59722C1.16282 17 0 15.8372 0 14.4028V4.48611C0 3.0517 1.16282 1.88889 2.59722 1.88889H4.72222V0.708333C4.72222 0.317132 5.03935 0 5.43056 0ZM4.72222 3.30556H2.59722C1.94522 3.30556 1.41667 3.83411 1.41667 4.48611V6.61111H15.5833V4.48611C15.5833 3.83411 15.0548 3.30556 14.4028 3.30556H12.2778V4.01389C12.2778 4.40509 11.9606 4.72222 11.5694 4.72222C11.1782 4.72222 10.8611 4.40509 10.8611 4.01389V3.30556H6.13889V4.01389C6.13889 4.40509 5.82176 4.72222 5.43056 4.72222C5.03935 4.72222 4.72222 4.40509 4.72222 4.01389V3.30556ZM15.5833 8.02778H1.41667V14.4028C1.41667 15.0548 1.94522 15.5833 2.59722 15.5833H14.4028C15.0548 15.5833 15.5833 15.0548 15.5833 14.4028V8.02778Z" fill="#1A1A1A"/>
<g id="Group 723">
<rect id="Rectangle 509" x="3.1875" y="9.5625" width="1.25926" height="1.49435" rx="0.62963" fill="#1A1A1A"/>
<rect id="Rectangle 510" x="5.50977" y="9.5625" width="1.25926" height="1.49435" rx="0.62963" fill="#1A1A1A"/>
<rect id="Rectangle 511" x="7.83179" y="9.5625" width="1.25926" height="1.49435" rx="0.62963" fill="#1A1A1A"/>
<rect id="Rectangle 512" x="10.1538" y="9.5625" width="1.25926" height="1.49435" rx="0.62963" fill="#1A1A1A"/>
<rect id="Rectangle 518" x="12.4761" y="9.5625" width="1.25926" height="1.49435" rx="0.62963" fill="#1A1A1A"/>
<rect id="Rectangle 514" x="5.50977" y="12.75" width="1.25926" height="1.49435" rx="0.62963" fill="#1A1A1A"/>
<rect id="Rectangle 517" x="10.1538" y="12.75" width="1.25926" height="1.49435" rx="0.62963" fill="#1A1A1A"/>
<rect id="Rectangle 519" x="12.4761" y="12.75" width="1.25926" height="1.49435" rx="0.62963" fill="#1A1A1A"/>
<rect id="Rectangle 515" x="7.83179" y="12.75" width="1.25926" height="1.49435" rx="0.62963" fill="#1A1A1A"/>
<rect id="Rectangle 516" x="3.1875" y="12.75" width="1.25926" height="1.49435" rx="0.62963" fill="#1A1A1A"/>
</g>
</g>
</svg>
