<svg width="24" height="25" viewBox="0 0 24 25" fill="none" xmlns="http://www.w3.org/2000/svg">
<g id="Group 1000004031">
<circle id="Ellipse 1371" cx="12" cy="12.5" r="12" fill="white"/>
<path id="Vector" d="M12 0.5C9.62663 0.5 7.30655 1.20379 5.33316 2.52236C3.35977 3.84094 1.8217 5.71508 0.913451 7.9078C0.00519941 10.1005 -0.232441 12.5133 0.230582 14.8411C0.693605 17.1689 1.83649 19.307 3.51472 20.9853C5.19295 22.6635 7.33115 23.8064 9.65892 24.2694C11.9867 24.7324 14.3995 24.4948 16.5922 23.5865C18.7849 22.6783 20.6591 21.1402 21.9776 19.1668C23.2962 17.1934 24 14.8734 24 12.5C24 10.9241 23.6896 9.3637 23.0866 7.9078C22.4835 6.45189 21.5996 5.12902 20.4853 4.01472C19.371 2.90041 18.0481 2.0165 16.5922 1.41345C15.1363 0.810389 13.5759 0.5 12 0.5ZM16.8 13.7H12C11.6817 13.7 11.3765 13.5736 11.1515 13.3485C10.9264 13.1235 10.8 12.8183 10.8 12.5V7.7C10.8 7.38174 10.9264 7.07651 11.1515 6.85147C11.3765 6.62643 11.6817 6.5 12 6.5C12.3183 6.5 12.6235 6.62643 12.8485 6.85147C13.0736 7.07651 13.2 7.38174 13.2 7.7V11.3H16.8C17.1183 11.3 17.4235 11.4264 17.6485 11.6515C17.8736 11.8765 18 12.1817 18 12.5C18 12.8183 17.8736 13.1235 17.6485 13.3485C17.4235 13.5736 17.1183 13.7 16.8 13.7Z" fill="#5D9CA2"/>
</g>
</svg>
